<svg version="1.1" id="Layer_1" xmlns="http://www.w3.org/2000/svg" xmlns:xlink="http://www.w3.org/1999/xlink" x="0px" y="0px"
	 width="100%" viewBox="0 0 1489 719" enable-background="new 0 0 1489 719" xml:space="preserve">
<path fill="#FFFFFF" opacity="1.000000" stroke="none" 
	d="
M1090.000000,720.000000 
	C726.707642,720.000000 363.915344,720.000000 1.061506,720.000000 
	C1.061506,480.401428 1.061506,240.802856 1.061506,1.102133 
	C497.209137,1.102133 993.418274,1.102133 1489.813721,1.102133 
	C1489.813721,240.666550 1489.813721,480.333252 1489.813721,720.000000 
	C1356.802612,720.000000 1223.651245,720.000000 1090.000000,720.000000 
M212.155685,287.401398 
	C210.980118,287.774445 209.804535,288.147491 207.938690,288.266388 
	C203.627716,287.041046 199.360794,284.949890 194.998779,284.727966 
	C161.489853,283.023438 140.765427,298.136810 132.932938,330.158905 
	C128.683594,347.531738 132.124466,364.671936 142.503845,378.754761 
	C150.067490,389.017151 149.876633,398.323212 146.501144,409.030457 
	C146.251465,409.822449 146.110519,410.649841 145.937927,411.464783 
	C139.931732,439.825684 134.042435,468.022217 137.524384,497.511292 
	C140.855240,525.720642 151.977325,549.557739 173.573761,567.632812 
	C190.980682,582.201538 211.508408,591.679993 233.504059,597.525024 
	C259.965790,604.556763 286.829437,609.394104 314.215790,610.835205 
	C327.998291,611.560425 341.878632,613.056030 355.577545,612.143738 
	C377.962189,610.652832 400.317749,608.057800 422.534393,604.873718 
	C453.330811,600.460083 482.675476,591.410706 508.637970,573.522644 
	C528.878418,559.577026 542.781738,540.717651 548.796814,516.932129 
	C554.565491,494.121033 555.667725,470.813660 551.196533,447.522125 
	C547.774109,429.694061 543.988098,411.935944 540.509033,394.118317 
	C540.167725,392.370270 540.178040,389.904785 541.153320,388.647430 
	C552.434998,374.103607 559.559021,358.122070 558.122742,339.331451 
	C556.732239,321.140137 550.186340,305.198944 534.695068,294.542694 
	C520.745239,284.946777 505.132812,282.049347 488.488770,286.196991 
	C478.517242,288.681885 470.684357,294.768402 463.305084,301.663055 
	C460.612152,299.589966 458.203247,297.542694 455.599487,295.783905 
	C452.846466,293.924316 449.919586,292.319366 447.048462,290.637665 
	C419.098602,274.266327 389.203278,263.748383 356.816956,260.853760 
	C353.518341,260.558929 351.738190,259.573425 353.235962,255.524170 
	C352.928802,250.962326 352.621613,246.400497 352.212677,241.225540 
	C352.196198,240.811966 352.179718,240.398392 352.703674,239.365616 
	C352.415131,231.937256 352.317657,224.493546 351.723053,217.089767 
	C351.541687,214.831467 351.242279,211.284180 346.258026,212.776505 
	C345.259766,212.949936 344.261536,213.123367 342.527283,213.135361 
	C339.684875,215.756912 336.842438,218.378464 333.648590,221.416550 
	C333.201752,221.726746 332.754944,222.036957 331.487518,222.246872 
	C327.994476,221.893311 324.290955,222.168549 321.043396,221.081589 
	C303.272522,215.133636 285.636627,208.783722 267.901215,202.727478 
	C262.970062,201.043579 259.857758,202.724854 258.047729,207.754181 
	C257.714203,208.182693 257.380676,208.611206 256.339508,209.068771 
	C255.680481,210.152771 255.021484,211.236771 254.158371,212.644028 
	C254.158371,212.644028 253.913040,212.937195 253.233383,213.005096 
	C250.954025,216.448608 248.674667,219.892120 246.201630,223.669052 
	C246.201630,223.669052 245.966003,223.974258 245.280807,224.038712 
	C238.304153,234.516815 231.324448,244.992905 224.375488,255.489349 
	C224.252029,255.675842 224.497452,256.106537 224.347244,256.762878 
	C224.347244,256.762878 224.087357,257.075470 223.304306,257.143341 
	C220.844681,257.803772 218.398727,258.943939 215.922272,259.014526 
	C212.004532,259.126312 208.018768,258.036621 204.156052,258.415741 
	C202.093842,258.618195 199.536667,260.447052 198.518463,262.274780 
	C197.838303,263.495697 199.474533,266.007019 200.283203,268.281586 
	C200.283203,268.281586 200.455658,268.642181 200.263474,269.306000 
	C200.846664,269.867340 201.429855,270.428680 202.224548,271.320435 
	C202.224548,271.320435 202.390640,271.675873 202.214752,272.409454 
	C205.587128,277.139343 208.959503,281.869263 212.364319,286.681488 
	C212.364319,286.681488 212.431061,286.739563 212.155685,287.401398 
M701.158752,329.060669 
	C680.013794,347.134216 658.888428,365.230743 637.712646,383.268158 
	C630.756897,389.193085 630.920715,390.425507 639.590759,393.900513 
	C666.931641,404.858948 694.240784,415.898468 721.656982,426.665314 
	C725.660156,428.237457 728.283264,430.534668 730.387451,434.168304 
	C751.786987,471.121979 781.683289,500.081268 816.958374,523.379639 
	C880.481445,565.335205 951.304260,585.452698 1026.675415,590.676880 
	C1065.715698,593.382996 1104.569336,590.989319 1143.116333,584.040527 
	C1203.921509,573.079346 1260.510986,551.718750 1310.640747,515.039368 
	C1350.503784,485.872009 1382.145020,449.827332 1400.482788,403.259979 
	C1413.406372,370.441010 1417.497925,336.545502 1411.468140,301.734009 
	C1403.037354,253.060516 1379.047485,212.671936 1344.084351,178.494247 
	C1304.722534,140.016602 1257.734985,114.218872 1205.818848,97.066216 
	C1145.747559,77.219147 1084.025146,70.407082 1021.014221,75.061653 
	C986.196777,77.633591 952.009644,83.838928 918.663757,94.272545 
	C861.377686,112.196800 809.687805,139.797485 767.286194,183.058868 
	C745.880371,204.898834 728.697937,229.640656 716.857666,258.025391 
	C707.438354,280.606445 702.763306,304.105957 701.158752,329.060669 
z"/>
<path fill="#3D4ECF" opacity="1.000000" stroke="none" 
	d="
M202.390640,271.675873 
	C202.390640,271.675873 202.224548,271.320435 202.138397,270.845337 
	C201.520065,269.794220 200.987854,269.218201 200.455658,268.642181 
	C200.455658,268.642181 200.283203,268.281586 200.188889,267.690277 
	C199.628098,261.128693 200.976166,259.734589 206.990845,260.104126 
	C210.927231,260.345978 214.899033,261.129242 218.773636,260.776550 
	C220.641693,260.606506 222.322021,258.374054 224.087357,257.075470 
	C224.087357,257.075470 224.347244,256.762878 224.761719,256.471161 
	C232.106140,245.444382 239.036072,234.709320 245.966003,223.974258 
	C245.966003,223.974258 246.201630,223.669052 246.611877,223.394470 
	C249.319107,219.725662 251.616074,216.331421 253.913040,212.937195 
	C253.913040,212.937195 254.158371,212.644028 254.570007,212.392639 
	C255.670120,211.107407 256.358612,210.073547 257.047119,209.039703 
	C257.380676,208.611206 257.714203,208.182693 258.500000,207.403137 
	C261.737457,203.982010 264.934875,203.464386 268.841553,204.894974 
	C273.031403,206.429245 277.460449,207.302475 281.674500,208.779724 
	C296.368805,213.930801 311.017853,219.211227 325.677704,224.460297 
	C328.456177,225.455154 330.908997,225.598587 332.308105,222.347168 
	C332.754944,222.036957 333.201752,221.726746 334.170410,221.201447 
	C337.549225,218.423157 340.406250,215.859970 343.263275,213.296783 
	C344.261536,213.123367 345.259766,212.949936 346.827606,213.101196 
	C348.318085,215.076630 349.831512,216.653488 350.048218,218.391983 
	C350.684387,223.495468 350.744934,228.668060 351.157257,233.803436 
	C351.323761,235.877457 351.818115,237.925140 352.163269,239.984818 
	C352.179718,240.398392 352.196198,240.811966 352.097595,241.983200 
	C352.163605,247.156616 352.344666,251.572388 352.525726,255.988144 
	C351.738190,259.573425 353.518341,260.558929 356.816956,260.853760 
	C389.203278,263.748383 419.098602,274.266327 447.048462,290.637665 
	C449.919586,292.319366 452.846466,293.924316 455.599487,295.783905 
	C458.203247,297.542694 460.612152,299.589966 463.305084,301.663055 
	C470.684357,294.768402 478.517242,288.681885 488.488770,286.196991 
	C505.132812,282.049347 520.745239,284.946777 534.695068,294.542694 
	C550.186340,305.198944 556.732239,321.140137 558.122742,339.331451 
	C559.559021,358.122070 552.434998,374.103607 541.153320,388.647430 
	C540.178040,389.904785 540.167725,392.370270 540.509033,394.118317 
	C543.988098,411.935944 547.774109,429.694061 551.196533,447.522125 
	C555.667725,470.813660 554.565491,494.121033 548.796814,516.932129 
	C542.781738,540.717651 528.878418,559.577026 508.637970,573.522644 
	C482.675476,591.410706 453.330811,600.460083 422.534393,604.873718 
	C400.317749,608.057800 377.962189,610.652832 355.577545,612.143738 
	C341.878632,613.056030 327.998291,611.560425 314.215790,610.835205 
	C286.829437,609.394104 259.965790,604.556763 233.504059,597.525024 
	C211.508408,591.679993 190.980682,582.201538 173.573761,567.632812 
	C151.977325,549.557739 140.855240,525.720642 137.524384,497.511292 
	C134.042435,468.022217 139.931732,439.825684 145.937927,411.464783 
	C146.110519,410.649841 146.251465,409.822449 146.501144,409.030457 
	C149.876633,398.323212 150.067490,389.017151 142.503845,378.754761 
	C132.124466,364.671936 128.683594,347.531738 132.932938,330.158905 
	C140.765427,298.136810 161.489853,283.023438 194.998779,284.727966 
	C199.360794,284.949890 203.627716,287.041046 208.456879,288.670166 
	C211.193115,290.358551 213.411179,291.643188 215.629257,292.927795 
	C215.950760,292.526184 216.272278,292.124603 216.593781,291.722992 
	C215.206207,290.061859 213.818634,288.400696 212.431061,286.739563 
	C212.431061,286.739563 212.364319,286.681488 212.319183,286.298279 
	C208.979584,281.168671 205.685120,276.422272 202.390640,271.675873 
M541.938599,447.923401 
	C538.538879,430.262421 535.867737,412.412872 531.369263,395.036377 
	C529.648132,388.387970 528.772888,384.324677 535.685181,381.403900 
	C536.364868,381.116669 536.850464,380.221375 537.283081,379.520050 
	C545.500977,366.197693 551.955933,351.995148 548.707764,336.100464 
	C544.060364,313.359741 534.570862,300.025574 512.021606,295.142914 
	C494.936157,291.443329 480.438385,295.767822 469.885712,310.526672 
	C467.257294,314.202759 463.834442,314.117828 460.047180,311.067596 
	C455.014893,307.014618 449.922241,302.982178 444.522278,299.450409 
	C428.615051,289.046478 410.919830,282.553925 392.790100,277.472015 
	C381.798920,274.391083 370.393127,272.762085 359.141815,270.650177 
	C354.885254,269.851196 351.103912,270.396027 348.665009,274.941254 
	C347.739471,276.666138 345.481110,277.851318 343.604462,278.864166 
	C313.886719,294.903351 282.153320,305.185089 249.066605,311.379242 
	C244.137451,312.302032 238.910553,311.605255 233.823059,311.727417 
	C232.084991,311.769104 230.125504,311.559265 228.660812,312.272583 
	C224.835541,314.135651 221.940506,313.506531 219.622910,309.992767 
	C212.295975,298.884186 201.258575,293.382385 188.690414,293.996704 
	C160.569412,295.371246 148.806717,307.346527 141.994431,332.380981 
	C137.261627,349.773590 143.759705,365.514587 153.150299,380.055328 
	C154.245010,381.750427 156.734818,382.497681 158.039978,384.117676 
	C159.205185,385.563934 160.512360,387.772949 160.219727,389.362366 
	C159.049973,395.715790 157.032242,401.909637 155.776596,408.251282 
	C150.191223,436.460205 143.222473,464.407196 146.717926,493.741150 
	C149.190979,514.495056 155.242142,533.297852 168.780472,549.450439 
	C182.396591,565.695801 200.430069,575.486328 219.669708,582.738831 
	C258.630676,597.425476 299.661377,601.989197 340.827454,602.810181 
	C364.476562,603.281799 388.335724,600.141235 411.882874,596.997864 
	C439.332947,593.333496 466.076385,586.770020 490.867920,573.298218 
	C513.777344,560.849182 530.701782,543.290894 538.369080,518.540588 
	C545.384583,495.894287 546.197571,472.330719 541.938599,447.923401 
M344.216766,245.531540 
	C343.822571,239.035248 343.428406,232.538956 342.964569,224.894653 
	C339.673065,227.543442 337.363037,229.149582 335.346985,231.065155 
	C320.269958,245.390457 305.334503,259.866699 290.106415,274.028656 
	C288.238770,275.765533 284.785400,276.938568 282.264557,276.649475 
	C263.760132,274.527374 245.315475,271.890503 226.829865,269.593750 
	C221.882843,268.979065 216.859283,268.980286 211.175003,268.659485 
	C211.943146,270.638306 212.095612,271.481750 212.543503,272.116882 
	C218.771790,280.948456 225.311646,289.575043 231.201797,298.625000 
	C234.981735,304.432678 239.776581,305.168182 245.814041,303.761139 
	C252.939590,302.100403 260.202850,300.980865 267.258087,299.077057 
	C290.906921,292.695770 314.081360,285.015320 336.053864,273.945160 
	C341.746063,271.077301 344.244965,267.195831 344.027740,260.992401 
	C343.859161,256.177246 344.144318,251.346207 344.216766,245.531540 
M292.980377,259.502747 
	C301.826843,249.828735 310.673309,240.154739 319.773254,230.203537 
	C304.656982,224.928894 288.197266,219.185455 271.737518,213.442017 
	C271.312775,213.927094 270.888031,214.412170 270.463287,214.897247 
	C275.791351,231.337250 281.119446,247.777237 286.791718,265.279205 
	C289.394958,262.868835 290.938965,261.439240 292.980377,259.502747 
M254.305740,226.807877 
	C246.718384,237.969955 239.131042,249.132034 231.073090,260.986420 
	C247.557007,263.222382 262.570221,265.258820 278.665405,267.442017 
	C273.164185,250.002304 267.983765,233.579468 262.632080,216.613785 
	C261.288239,217.737488 260.693878,218.074722 260.317902,218.575806 
	C258.422607,221.101776 256.584290,223.670456 254.305740,226.807877 
z"/>
<path fill="#3849CE" opacity="1.000000" stroke="none" 
	d="
M701.422852,328.746460 
	C702.763306,304.105957 707.438354,280.606445 716.857666,258.025391 
	C728.697937,229.640656 745.880371,204.898834 767.286194,183.058868 
	C809.687805,139.797485 861.377686,112.196800 918.663757,94.272545 
	C952.009644,83.838928 986.196777,77.633591 1021.014221,75.061653 
	C1084.025146,70.407082 1145.747559,77.219147 1205.818848,97.066216 
	C1257.734985,114.218872 1304.722534,140.016602 1344.084351,178.494247 
	C1379.047485,212.671936 1403.037354,253.060516 1411.468140,301.734009 
	C1417.497925,336.545502 1413.406372,370.441010 1400.482788,403.259979 
	C1382.145020,449.827332 1350.503784,485.872009 1310.640747,515.039368 
	C1260.510986,551.718750 1203.921509,573.079346 1143.116333,584.040527 
	C1104.569336,590.989319 1065.715698,593.382996 1026.675415,590.676880 
	C951.304260,585.452698 880.481445,565.335205 816.958374,523.379639 
	C781.683289,500.081268 751.786987,471.121979 730.387451,434.168304 
	C728.283264,430.534668 725.660156,428.237457 721.656982,426.665314 
	C694.240784,415.898468 666.931641,404.858948 639.590759,393.900513 
	C630.920715,390.425507 630.756897,389.193085 637.712646,383.268158 
	C658.888428,365.230743 680.013794,347.134216 701.422852,328.746460 
M1204.228027,561.939331 
	C1205.948242,561.312866 1207.662109,560.667908 1209.389893,560.062744 
	C1264.042480,540.922852 1312.703979,512.321533 1351.766968,468.933014 
	C1376.450806,441.515961 1394.385132,410.284760 1402.643921,373.997559 
	C1411.577759,334.743408 1407.692261,296.652802 1392.239502,259.560699 
	C1378.112305,225.650513 1356.121948,197.607620 1328.861084,173.387939 
	C1285.705322,135.046310 1234.899292,111.220558 1179.805786,96.214294 
	C1127.781860,82.044121 1074.683228,77.717758 1020.860779,81.868652 
	C973.680176,85.507317 928.127014,95.692413 884.317017,113.736938 
	C838.068054,132.786041 797.105835,159.419754 763.531067,196.819794 
	C741.054993,221.856522 724.144470,250.198563 715.646362,282.843140 
	C711.900391,297.233002 710.915955,312.332825 708.436157,327.069641 
	C708.002380,329.647552 707.004211,332.731323 705.179443,334.372711 
	C696.140930,342.502991 686.732483,350.221558 677.464417,358.097046 
	C665.966064,367.867676 654.477539,377.649902 642.660889,387.702698 
	C644.540466,388.575317 645.853882,389.264740 647.224670,389.809784 
	C673.195740,400.135834 699.137024,410.538757 725.184204,420.669403 
	C729.780823,422.457184 733.173462,424.844452 735.513977,429.289948 
	C738.299133,434.579895 741.574524,439.636597 744.925476,444.599884 
	C769.198853,480.553253 801.582886,507.745941 838.776855,529.168762 
	C896.051819,562.157776 958.329590,579.199402 1024.003418,583.868164 
	C1085.157104,588.215515 1145.014038,580.698975 1204.228027,561.939331 
z"/>
<path fill="#ADB5EB" opacity="1.000000" stroke="none" 
	d="
M331.897827,222.297028 
	C330.908997,225.598587 328.456177,225.455154 325.677704,224.460297 
	C311.017853,219.211227 296.368805,213.930801 281.674500,208.779724 
	C277.460449,207.302475 273.031403,206.429245 268.841553,204.894974 
	C264.934875,203.464386 261.737457,203.982010 258.616180,207.155518 
	C259.857758,202.724854 262.970062,201.043579 267.901215,202.727478 
	C285.636627,208.783722 303.272522,215.133636 321.043396,221.081589 
	C324.290955,222.168549 327.994476,221.893311 331.897827,222.297028 
z"/>
<path fill="#ADB5EB" opacity="1.000000" stroke="none" 
	d="
M245.623413,224.006485 
	C239.036072,234.709320 232.106140,245.444382 224.873474,256.301361 
	C224.497452,256.106537 224.252029,255.675842 224.375488,255.489349 
	C231.324448,244.992905 238.304153,234.516815 245.623413,224.006485 
z"/>
<path fill="#ADB5EB" opacity="1.000000" stroke="none" 
	d="
M223.695831,257.109406 
	C222.322021,258.374054 220.641693,260.606506 218.773636,260.776550 
	C214.899033,261.129242 210.927231,260.345978 206.990845,260.104126 
	C200.976166,259.734589 199.628098,261.128693 200.084351,267.519928 
	C199.474533,266.007019 197.838303,263.495697 198.518463,262.274780 
	C199.536667,260.447052 202.093842,258.618195 204.156052,258.415741 
	C208.018768,258.036621 212.004532,259.126312 215.922272,259.014526 
	C218.398727,258.943939 220.844681,257.803772 223.695831,257.109406 
z"/>
<path fill="#ADB5EB" opacity="1.000000" stroke="none" 
	d="
M352.433472,239.675217 
	C351.818115,237.925140 351.323761,235.877457 351.157257,233.803436 
	C350.744934,228.668060 350.684387,223.495468 350.048218,218.391983 
	C349.831512,216.653488 348.318085,215.076630 347.209229,213.101273 
	C351.242279,211.284180 351.541687,214.831467 351.723053,217.089767 
	C352.317657,224.493546 352.415131,231.937256 352.433472,239.675217 
z"/>
<path fill="#ADB5EB" opacity="1.000000" stroke="none" 
	d="
M202.302704,272.042664 
	C205.685120,276.422272 208.979584,281.168671 212.302963,286.257111 
	C208.959503,281.869263 205.587128,277.139343 202.302704,272.042664 
z"/>
<path fill="#ADB5EB" opacity="1.000000" stroke="none" 
	d="
M352.880859,255.756165 
	C352.344666,251.572388 352.163605,247.156616 352.148499,242.289764 
	C352.621613,246.400497 352.928802,250.962326 352.880859,255.756165 
z"/>
<path fill="#ADB5EB" opacity="1.000000" stroke="none" 
	d="
M253.573212,212.971146 
	C251.616074,216.331421 249.319107,219.725662 246.708725,223.227753 
	C248.674667,219.892120 250.954025,216.448608 253.573212,212.971146 
z"/>
<path fill="#ADB5EB" opacity="1.000000" stroke="none" 
	d="
M342.895264,213.216064 
	C340.406250,215.859970 337.549225,218.423157 334.346100,220.993179 
	C336.842438,218.378464 339.684875,215.756912 342.895264,213.216064 
z"/>
<path fill="#ADB5EB" opacity="1.000000" stroke="none" 
	d="
M212.293365,287.070496 
	C213.818634,288.400696 215.206207,290.061859 216.593781,291.722992 
	C216.272278,292.124603 215.950760,292.526184 215.629257,292.927795 
	C213.411179,291.643188 211.193115,290.358551 208.802002,288.797241 
	C209.804535,288.147491 210.980118,287.774445 212.293365,287.070496 
z"/>
<path fill="#ADB5EB" opacity="1.000000" stroke="none" 
	d="
M256.693298,209.054230 
	C256.358612,210.073547 255.670120,211.107407 254.672058,212.231018 
	C255.021484,211.236771 255.680481,210.152771 256.693298,209.054230 
z"/>
<path fill="#ADB5EB" opacity="1.000000" stroke="none" 
	d="
M200.359558,268.974091 
	C200.987854,269.218201 201.520065,269.794220 202.032654,270.680115 
	C201.429855,270.428680 200.846664,269.867340 200.359558,268.974091 
z"/>
<path fill="#FEFEFF" opacity="1.000000" stroke="none" 
	d="
M541.998169,448.359772 
	C546.197571,472.330719 545.384583,495.894287 538.369080,518.540588 
	C530.701782,543.290894 513.777344,560.849182 490.867920,573.298218 
	C466.076385,586.770020 439.332947,593.333496 411.882874,596.997864 
	C388.335724,600.141235 364.476562,603.281799 340.827454,602.810181 
	C299.661377,601.989197 258.630676,597.425476 219.669708,582.738831 
	C200.430069,575.486328 182.396591,565.695801 168.780472,549.450439 
	C155.242142,533.297852 149.190979,514.495056 146.717926,493.741150 
	C143.222473,464.407196 150.191223,436.460205 155.776596,408.251282 
	C157.032242,401.909637 159.049973,395.715790 160.219727,389.362366 
	C160.512360,387.772949 159.205185,385.563934 158.039978,384.117676 
	C156.734818,382.497681 154.245010,381.750427 153.150299,380.055328 
	C143.759705,365.514587 137.261627,349.773590 141.994431,332.380981 
	C148.806717,307.346527 160.569412,295.371246 188.690414,293.996704 
	C201.258575,293.382385 212.295975,298.884186 219.622910,309.992767 
	C221.940506,313.506531 224.835541,314.135651 228.660812,312.272583 
	C230.125504,311.559265 232.084991,311.769104 233.823059,311.727417 
	C238.910553,311.605255 244.137451,312.302032 249.066605,311.379242 
	C282.153320,305.185089 313.886719,294.903351 343.604462,278.864166 
	C345.481110,277.851318 347.739471,276.666138 348.665009,274.941254 
	C351.103912,270.396027 354.885254,269.851196 359.141815,270.650177 
	C370.393127,272.762085 381.798920,274.391083 392.790100,277.472015 
	C410.919830,282.553925 428.615051,289.046478 444.522278,299.450409 
	C449.922241,302.982178 455.014893,307.014618 460.047180,311.067596 
	C463.834442,314.117828 467.257294,314.202759 469.885712,310.526672 
	C480.438385,295.767822 494.936157,291.443329 512.021606,295.142914 
	C534.570862,300.025574 544.060364,313.359741 548.707764,336.100464 
	C551.955933,351.995148 545.500977,366.197693 537.283081,379.520050 
	C536.850464,380.221375 536.364868,381.116669 535.685181,381.403900 
	C528.772888,384.324677 529.648132,388.387970 531.369263,395.036377 
	C535.867737,412.412872 538.538879,430.262421 541.998169,448.359772 
M290.202942,511.239410 
	C295.616364,522.120117 303.901703,529.418091 315.923981,532.308411 
	C335.213806,536.945984 354.548401,537.144226 373.723175,532.240112 
	C379.190552,530.841675 384.630127,528.037476 389.197937,524.675964 
	C400.366150,516.457031 403.471283,504.020782 403.866821,491.099976 
	C404.966736,455.167999 388.712830,427.000793 362.507355,404.166565 
	C354.707520,397.370178 344.275757,393.901886 334.368011,400.758881 
	C326.396576,406.275757 318.227539,412.211517 312.181305,419.621918 
	C305.124359,428.271118 299.588715,438.384460 294.619843,448.467133 
	C284.814850,468.362915 282.850739,489.187317 290.202942,511.239410 
M502.031250,353.462891 
	C502.846466,354.291229 503.657440,355.123779 504.477509,355.947296 
	C509.993896,361.486633 515.325378,361.386658 520.758240,355.805328 
	C524.853455,351.598206 525.149719,346.421356 525.071106,341.007507 
	C524.826050,324.151276 507.058319,312.924042 491.812469,320.055664 
	C484.953918,323.263947 483.127380,328.798126 487.492096,334.990387 
	C491.864563,341.193665 496.823517,346.983551 502.031250,353.462891 
M201.549454,337.966827 
	C207.146454,331.510468 205.982803,326.079803 198.344925,322.696198 
	C192.485153,320.100311 186.936462,321.001343 181.003021,323.026855 
	C165.877502,328.190216 160.036682,349.743378 170.070114,363.058807 
	C172.701416,366.550812 176.598862,367.071533 179.452347,363.841248 
	C186.798004,355.525604 193.868195,346.966644 201.549454,337.966827 
M274.105133,409.073517 
	C275.923676,410.161957 278.025818,412.392944 279.484314,412.030884 
	C281.074463,411.636139 282.918579,408.942963 283.151123,407.065796 
	C283.698944,402.643707 283.502014,398.104980 283.318481,393.625214 
	C283.196045,390.636230 282.207550,387.791687 278.449615,387.961243 
	C274.888397,388.121918 273.727997,390.808868 273.676575,393.864044 
	C273.595642,398.676727 273.801117,403.494202 274.105133,409.073517 
M415.525635,390.378326 
	C413.541229,389.661224 411.454834,388.234070 409.611420,388.498871 
	C408.540771,388.652618 407.249115,391.477722 407.121979,393.180328 
	C406.777161,397.798096 407.004303,402.458313 406.997681,407.101685 
	C406.993378,410.120239 407.964172,412.486786 411.431610,412.418182 
	C414.723236,412.353058 416.055847,410.174896 416.031799,407.103180 
	C415.990326,401.802185 415.872955,396.501770 415.525635,390.378326 
z"/>
<path fill="#F8F8FD" opacity="1.000000" stroke="none" 
	d="
M344.222290,246.026886 
	C344.144318,251.346207 343.859161,256.177246 344.027740,260.992401 
	C344.244965,267.195831 341.746063,271.077301 336.053864,273.945160 
	C314.081360,285.015320 290.906921,292.695770 267.258087,299.077057 
	C260.202850,300.980865 252.939590,302.100403 245.814041,303.761139 
	C239.776581,305.168182 234.981735,304.432678 231.201797,298.625000 
	C225.311646,289.575043 218.771790,280.948456 212.543503,272.116882 
	C212.095612,271.481750 211.943146,270.638306 211.175003,268.659485 
	C216.859283,268.980286 221.882843,268.979065 226.829865,269.593750 
	C245.315475,271.890503 263.760132,274.527374 282.264557,276.649475 
	C284.785400,276.938568 288.238770,275.765533 290.106415,274.028656 
	C305.334503,259.866699 320.269958,245.390457 335.346985,231.065155 
	C337.363037,229.149582 339.673065,227.543442 342.964569,224.894653 
	C343.428406,232.538956 343.822571,239.035248 344.222290,246.026886 
z"/>
<path fill="#F5F6FC" opacity="1.000000" stroke="none" 
	d="
M292.731659,259.756226 
	C290.938965,261.439240 289.394958,262.868835 286.791718,265.279205 
	C281.119446,247.777237 275.791351,231.337250 270.463287,214.897247 
	C270.888031,214.412170 271.312775,213.927094 271.737518,213.442017 
	C288.197266,219.185455 304.656982,224.928894 319.773254,230.203537 
	C310.673309,240.154739 301.826843,249.828735 292.731659,259.756226 
z"/>
<path fill="#F5F6FC" opacity="1.000000" stroke="none" 
	d="
M254.515869,226.516006 
	C256.584290,223.670456 258.422607,221.101776 260.317902,218.575806 
	C260.693878,218.074722 261.288239,217.737488 262.632080,216.613785 
	C267.983765,233.579468 273.164185,250.002304 278.665405,267.442017 
	C262.570221,265.258820 247.557007,263.222382 231.073090,260.986420 
	C239.131042,249.132034 246.718384,237.969955 254.515869,226.516006 
z"/>
<path fill="#FFFFFF" opacity="1.000000" stroke="none" 
	d="
M1203.849731,562.055542 
	C1145.014038,580.698975 1085.157104,588.215515 1024.003418,583.868164 
	C958.329590,579.199402 896.051819,562.157776 838.776855,529.168762 
	C801.582886,507.745941 769.198853,480.553253 744.925476,444.599884 
	C741.574524,439.636597 738.299133,434.579895 735.513977,429.289948 
	C733.173462,424.844452 729.780823,422.457184 725.184204,420.669403 
	C699.137024,410.538757 673.195740,400.135834 647.224670,389.809784 
	C645.853882,389.264740 644.540466,388.575317 642.660889,387.702698 
	C654.477539,377.649902 665.966064,367.867676 677.464417,358.097046 
	C686.732483,350.221558 696.140930,342.502991 705.179443,334.372711 
	C707.004211,332.731323 708.002380,329.647552 708.436157,327.069641 
	C710.915955,312.332825 711.900391,297.233002 715.646362,282.843140 
	C724.144470,250.198563 741.054993,221.856522 763.531067,196.819794 
	C797.105835,159.419754 838.068054,132.786041 884.317017,113.736938 
	C928.127014,95.692413 973.680176,85.507317 1020.860779,81.868652 
	C1074.683228,77.717758 1127.781860,82.044121 1179.805786,96.214294 
	C1234.899292,111.220558 1285.705322,135.046310 1328.861084,173.387939 
	C1356.121948,197.607620 1378.112305,225.650513 1392.239502,259.560699 
	C1407.692261,296.652802 1411.577759,334.743408 1402.643921,373.997559 
	C1394.385132,410.284760 1376.450806,441.515961 1351.766968,468.933014 
	C1312.703979,512.321533 1264.042480,540.922852 1209.389893,560.062744 
	C1207.662109,560.667908 1205.948242,561.312866 1203.849731,562.055542 
M835.681091,345.880096 
	C838.415588,350.451233 841.089783,355.060425 843.931335,359.563965 
	C844.560913,360.561737 845.747986,361.821075 846.736572,361.874115 
	C851.314392,362.119781 855.912781,361.982697 860.446899,361.982697 
	C860.446899,339.932678 860.446899,318.561981 860.446899,297.218018 
	C856.444153,297.218018 852.843140,297.218018 848.907715,297.218018 
	C848.907715,313.020721 848.907715,328.552979 848.907715,345.295746 
	C847.832031,343.672516 847.384827,343.064178 847.005859,342.415955 
	C838.858276,328.479919 830.751831,314.519592 822.526550,300.629578 
	C821.677246,299.195343 820.216980,297.256622 818.889160,297.129517 
	C814.343384,296.694366 809.730225,296.962646 805.157471,296.962646 
	C805.157471,318.967896 805.157471,340.226532 805.157471,361.746216 
	C809.123962,361.746216 812.854553,361.746216 817.015198,361.746216 
	C817.015198,346.180328 817.015198,330.848938 817.015198,314.193268 
	C823.565430,325.334503 829.424500,335.300201 835.681091,345.880096 
M1013.534302,362.319153 
	C1017.380554,359.998535 1021.226868,357.677948 1025.089844,355.347229 
	C1025.306396,357.065613 1025.605469,359.439362 1025.884277,361.651672 
	C1030.043213,361.651672 1033.784058,361.651672 1037.444580,361.651672 
	C1037.444580,337.929352 1037.444580,314.571228 1037.444580,291.274353 
	C1032.939819,291.274353 1028.842773,291.274353 1024.216309,291.274353 
	C1024.216309,300.582336 1024.216309,309.614075 1024.216309,319.196259 
	C1009.225403,303.482117 990.260376,315.231445 988.498779,329.834045 
	C987.833130,335.351715 987.804321,341.230225 988.965149,346.625916 
	C991.489990,358.362366 1000.689636,364.140869 1013.534302,362.319153 
M1282.143311,331.410522 
	C1280.869751,322.982269 1277.241943,315.971924 1268.815186,313.044739 
	C1259.443481,309.789215 1251.291992,312.111267 1245.209229,321.408752 
	C1244.897095,317.847229 1244.685791,315.436829 1244.473877,313.017395 
	C1240.272827,313.017395 1236.653931,313.017395 1232.773438,313.017395 
	C1232.773438,336.305634 1232.773438,359.366455 1232.773438,382.564850 
	C1237.226929,382.564850 1241.430786,382.564850 1246.069702,382.564850 
	C1246.069702,373.335266 1246.069702,364.455811 1246.069702,355.089050 
	C1246.963379,355.711365 1247.445068,355.884888 1247.670288,356.227142 
	C1254.368896,366.406891 1273.185547,365.753998 1279.216309,351.606476 
	C1281.695923,345.789856 1281.306519,338.750305 1282.143311,331.410522 
M1095.973145,346.503784 
	C1096.286865,340.880615 1095.991455,335.135071 1097.089966,329.669647 
	C1098.132690,324.480377 1103.777588,321.444702 1108.600586,322.242706 
	C1113.439087,323.043274 1115.745728,325.977142 1116.067383,331.908752 
	C1116.193481,334.234467 1116.149902,336.570343 1116.152710,338.901642 
	C1116.161499,346.501221 1116.155884,354.100830 1116.155884,361.783508 
	C1120.944092,361.783508 1125.047241,361.783508 1129.117798,361.783508 
	C1129.117798,349.294983 1129.655884,337.001404 1128.920532,324.784485 
	C1128.463379,317.191986 1122.361816,312.759247 1114.641235,311.887085 
	C1107.367920,311.065460 1101.394653,313.329437 1095.955566,319.930817 
	C1095.955566,309.570251 1095.955566,300.521606 1095.955566,291.332886 
	C1091.255493,291.332886 1087.057495,291.332886 1082.909668,291.332886 
	C1082.909668,315.043518 1082.909668,338.408539 1082.909668,361.699188 
	C1087.412964,361.699188 1091.503906,361.699188 1095.973145,361.699188 
	C1095.973145,356.764130 1095.973145,352.131897 1095.973145,346.503784 
M1188.306396,327.309021 
	C1183.912842,314.682587 1172.260986,308.881073 1158.588745,312.512726 
	C1145.937134,315.873322 1139.430664,326.726410 1141.100586,341.683502 
	C1142.470825,353.956146 1151.537720,362.286224 1164.286377,362.985077 
	C1175.755493,363.613800 1184.589844,359.076172 1187.707520,350.955078 
	C1180.018921,346.762268 1180.080200,346.856934 1173.737305,350.964203 
	C1169.313232,353.828949 1164.502686,353.791534 1159.980469,351.316895 
	C1156.512329,349.419037 1154.331543,346.414551 1154.779053,341.682709 
	C1160.657471,341.682709 1166.305176,341.682709 1171.953003,341.682709 
	C1177.544434,341.682709 1183.135864,341.682709 1189.452515,341.682709 
	C1189.122192,336.616577 1188.843506,332.343018 1188.306396,327.309021 
M873.396790,333.043823 
	C871.976746,352.502747 882.501099,363.960388 900.864563,362.993958 
	C907.994080,362.618713 918.892395,358.231812 920.054749,350.740692 
	C915.135193,348.371338 910.800110,345.503418 905.373230,351.097412 
	C901.940857,354.635529 896.260925,353.753845 891.831604,351.021301 
	C888.630859,349.046722 886.614258,346.154999 887.138611,341.493225 
	C898.566406,341.493225 909.781250,341.493225 920.855164,341.493225 
	C923.580322,329.117615 919.061890,318.241089 909.393311,313.947296 
	C896.831482,308.368652 876.525208,312.092224 873.396790,333.043823 
M930.543396,340.985229 
	C932.583801,354.295135 940.364319,361.816071 953.040100,362.965302 
	C964.315735,363.987640 976.410522,358.012390 977.178528,350.747803 
	C972.252930,348.365936 967.926819,345.445557 962.489441,351.128021 
	C959.112610,354.657074 953.379272,353.744049 948.943665,350.997833 
	C945.730835,349.008698 943.859314,346.068909 944.197205,341.683929 
	C950.139465,341.683929 955.777954,341.683929 961.416382,341.683929 
	C967.011597,341.683929 972.606750,341.683929 978.043762,341.683929 
	C982.145691,321.360596 967.406921,307.413818 948.075562,312.496643 
	C935.966248,315.680603 929.827393,325.284668 930.543396,340.985229 
M1335.778931,316.972626 
	C1336.462036,305.717560 1331.949951,299.047638 1320.780640,297.083557 
	C1314.719604,296.017731 1308.162231,296.166351 1302.079590,297.217773 
	C1293.486450,298.703156 1287.606934,305.788116 1286.964966,313.616699 
	C1290.867065,315.096771 1294.812500,316.593323 1298.756958,318.089417 
	C1301.921997,309.367218 1305.692871,306.398163 1312.595825,307.125214 
	C1316.774170,307.565308 1320.462769,308.896484 1321.272949,313.847504 
	C1322.058838,318.650513 1320.116455,322.109528 1315.086304,323.842377 
	C1311.685059,325.014038 1308.096924,325.642792 1304.537109,326.528168 
	C1304.537109,331.266571 1304.537109,335.871429 1304.537109,340.654541 
	C1308.653931,340.654541 1312.518677,340.654541 1316.953979,340.654541 
	C1315.210327,333.480682 1318.982544,331.280121 1324.958862,329.829681 
	C1330.827759,328.405273 1334.449219,323.920837 1335.778931,316.972626 
M1220.307495,352.992432 
	C1215.214355,353.405853 1214.149780,350.332916 1214.167480,346.099701 
	C1214.220215,333.464508 1214.185303,320.828888 1214.184692,308.193451 
	C1214.184448,302.596863 1214.184570,297.000244 1214.184570,291.250671 
	C1209.548462,291.250671 1205.479980,291.250671 1201.227295,291.250671 
	C1201.110962,292.101685 1200.951050,292.727936 1200.950562,293.354340 
	C1200.936157,312.307465 1200.896973,331.260803 1200.993164,350.213440 
	C1201.003906,352.316772 1201.481934,354.549866 1202.295288,356.491638 
	C1204.504395,361.765900 1211.284058,363.795319 1218.659912,362.736633 
	C1225.434448,361.764221 1223.923828,356.887970 1224.788574,352.499817 
	C1223.294556,352.693298 1222.202515,352.834717 1220.307495,352.992432 
M1302.585327,357.695557 
	C1303.429199,358.887970 1304.130981,360.948334 1305.142944,361.114044 
	C1308.518921,361.666809 1312.295288,362.388336 1315.340210,361.350250 
	C1317.110962,360.746613 1318.868408,356.788483 1318.633545,354.549255 
	C1318.398071,352.301971 1316.109497,349.326263 1313.970703,348.398956 
	C1307.510132,345.597656 1302.247803,349.750946 1302.585327,357.695557 
z"/>
<path fill="#394BCE" opacity="1.000000" stroke="none" 
	d="
M290.064484,510.883057 
	C282.850739,489.187317 284.814850,468.362915 294.619843,448.467133 
	C299.588715,438.384460 305.124359,428.271118 312.181305,419.621918 
	C318.227539,412.211517 326.396576,406.275757 334.368011,400.758881 
	C344.275757,393.901886 354.707520,397.370178 362.507355,404.166565 
	C388.712830,427.000793 404.966736,455.167999 403.866821,491.099976 
	C403.471283,504.020782 400.366150,516.457031 389.197937,524.675964 
	C384.630127,528.037476 379.190552,530.841675 373.723175,532.240112 
	C354.548401,537.144226 335.213806,536.945984 315.923981,532.308411 
	C303.901703,529.418091 295.616364,522.120117 290.064484,510.883057 
M392.994751,501.349030 
	C401.588593,474.416290 380.845215,433.463348 369.032562,425.438660 
	C353.132477,436.444458 337.949127,436.388733 320.232056,425.061798 
	C318.854370,426.613525 317.077026,428.013733 316.078613,429.839783 
	C310.512177,440.020416 304.347595,449.975769 299.896301,460.638031 
	C294.626740,473.260437 293.835388,486.634399 296.682953,500.283264 
	C299.318085,512.913757 306.479126,520.856689 318.825378,523.859192 
	C336.590729,528.179504 354.484222,528.205688 372.182709,523.571655 
	C383.188812,520.689880 390.409119,513.592041 392.994751,501.349030 
z"/>
<path fill="#B0F9ED" opacity="1.000000" stroke="none" 
	d="
M501.778320,353.208740 
	C496.823517,346.983551 491.864563,341.193665 487.492096,334.990387 
	C483.127380,328.798126 484.953918,323.263947 491.812469,320.055664 
	C507.058319,312.924042 524.826050,324.151276 525.071106,341.007507 
	C525.149719,346.421356 524.853455,351.598206 520.758240,355.805328 
	C515.325378,361.386658 509.993896,361.486633 504.477509,355.947296 
	C503.657440,355.123779 502.846466,354.291229 501.778320,353.208740 
z"/>
<path fill="#B0F9ED" opacity="1.000000" stroke="none" 
	d="
M201.298950,338.235870 
	C193.868195,346.966644 186.798004,355.525604 179.452347,363.841248 
	C176.598862,367.071533 172.701416,366.550812 170.070114,363.058807 
	C160.036682,349.743378 165.877502,328.190216 181.003021,323.026855 
	C186.936462,321.001343 192.485153,320.100311 198.344925,322.696198 
	C205.982803,326.079803 207.146454,331.510468 201.298950,338.235870 
z"/>
<path fill="#3C4DCF" opacity="1.000000" stroke="none" 
	d="
M273.995239,408.691589 
	C273.801117,403.494202 273.595642,398.676727 273.676575,393.864044 
	C273.727997,390.808868 274.888397,388.121918 278.449615,387.961243 
	C282.207550,387.791687 283.196045,390.636230 283.318481,393.625214 
	C283.502014,398.104980 283.698944,402.643707 283.151123,407.065796 
	C282.918579,408.942963 281.074463,411.636139 279.484314,412.030884 
	C278.025818,412.392944 275.923676,410.161957 273.995239,408.691589 
z"/>
<path fill="#3F50CF" opacity="1.000000" stroke="none" 
	d="
M415.656525,390.789734 
	C415.872955,396.501770 415.990326,401.802185 416.031799,407.103180 
	C416.055847,410.174896 414.723236,412.353058 411.431610,412.418182 
	C407.964172,412.486786 406.993378,410.120239 406.997681,407.101685 
	C407.004303,402.458313 406.777161,397.798096 407.121979,393.180328 
	C407.249115,391.477722 408.540771,388.652618 409.611420,388.498871 
	C411.454834,388.234070 413.541229,389.661224 415.656525,390.789734 
z"/>
<path fill="#5F35CB" opacity="1.000000" stroke="none" 
	d="
M835.482300,345.572998 
	C829.424500,335.300201 823.565430,325.334503 817.015198,314.193268 
	C817.015198,330.848938 817.015198,346.180328 817.015198,361.746216 
	C812.854553,361.746216 809.123962,361.746216 805.157471,361.746216 
	C805.157471,340.226532 805.157471,318.967896 805.157471,296.962646 
	C809.730225,296.962646 814.343384,296.694366 818.889160,297.129517 
	C820.216980,297.256622 821.677246,299.195343 822.526550,300.629578 
	C830.751831,314.519592 838.858276,328.479919 847.005859,342.415955 
	C847.384827,343.064178 847.832031,343.672516 848.907715,345.295746 
	C848.907715,328.552979 848.907715,313.020721 848.907715,297.218018 
	C852.843140,297.218018 856.444153,297.218018 860.446899,297.218018 
	C860.446899,318.561981 860.446899,339.932678 860.446899,361.982697 
	C855.912781,361.982697 851.314392,362.119781 846.736572,361.874115 
	C845.747986,361.821075 844.560913,360.561737 843.931335,359.563965 
	C841.089783,355.060425 838.415588,350.451233 835.482300,345.572998 
z"/>
<path fill="#6137CC" opacity="1.000000" stroke="none" 
	d="
M1013.142700,362.461975 
	C1000.689636,364.140869 991.489990,358.362366 988.965149,346.625916 
	C987.804321,341.230225 987.833130,335.351715 988.498779,329.834045 
	C990.260376,315.231445 1009.225403,303.482117 1024.216309,319.196259 
	C1024.216309,309.614075 1024.216309,300.582336 1024.216309,291.274353 
	C1028.842773,291.274353 1032.939819,291.274353 1037.444580,291.274353 
	C1037.444580,314.571228 1037.444580,337.929352 1037.444580,361.651672 
	C1033.784058,361.651672 1030.043213,361.651672 1025.884277,361.651672 
	C1025.605469,359.439362 1025.306396,357.065613 1025.089844,355.347229 
	C1021.226868,357.677948 1017.380554,359.998535 1013.142700,362.461975 
M1001.076782,336.637177 
	C1001.446045,339.421570 1001.493103,342.297821 1002.255005,344.970245 
	C1003.621155,349.762024 1007.864014,352.730652 1012.660217,352.776184 
	C1019.443726,352.840607 1023.912292,347.186310 1024.262207,338.095428 
	C1024.629639,328.548767 1020.746643,322.513245 1013.915955,322.013458 
	C1006.386108,321.462463 1002.352783,325.788116 1001.076782,336.637177 
z"/>
<path fill="#5F35CB" opacity="1.000000" stroke="none" 
	d="
M1282.182617,331.838745 
	C1281.306519,338.750305 1281.695923,345.789856 1279.216309,351.606476 
	C1273.185547,365.753998 1254.368896,366.406891 1247.670288,356.227142 
	C1247.445068,355.884888 1246.963379,355.711365 1246.069702,355.089050 
	C1246.069702,364.455811 1246.069702,373.335266 1246.069702,382.564850 
	C1241.430786,382.564850 1237.226929,382.564850 1232.773438,382.564850 
	C1232.773438,359.366455 1232.773438,336.305634 1232.773438,313.017395 
	C1236.653931,313.017395 1240.272827,313.017395 1244.473877,313.017395 
	C1244.685791,315.436829 1244.897095,317.847229 1245.209229,321.408752 
	C1251.291992,312.111267 1259.443481,309.789215 1268.815186,313.044739 
	C1277.241943,315.971924 1280.869751,322.982269 1282.182617,331.838745 
M1250.475952,350.110199 
	C1258.645386,355.226257 1266.981201,352.090027 1268.556274,342.820282 
	C1269.257446,338.692810 1268.823486,334.199280 1268.034180,330.036926 
	C1267.112305,325.174988 1263.685547,322.349396 1258.551880,322.010345 
	C1253.245728,321.659912 1249.407349,324.084991 1247.573853,328.882324 
	C1244.825439,336.072662 1244.891357,343.177429 1250.475952,350.110199 
z"/>
<path fill="#6036CB" opacity="1.000000" stroke="none" 
	d="
M1095.973145,347.001709 
	C1095.973145,352.131897 1095.973145,356.764130 1095.973145,361.699188 
	C1091.503906,361.699188 1087.412964,361.699188 1082.909668,361.699188 
	C1082.909668,338.408539 1082.909668,315.043518 1082.909668,291.332886 
	C1087.057495,291.332886 1091.255493,291.332886 1095.955566,291.332886 
	C1095.955566,300.521606 1095.955566,309.570251 1095.955566,319.930817 
	C1101.394653,313.329437 1107.367920,311.065460 1114.641235,311.887085 
	C1122.361816,312.759247 1128.463379,317.191986 1128.920532,324.784485 
	C1129.655884,337.001404 1129.117798,349.294983 1129.117798,361.783508 
	C1125.047241,361.783508 1120.944092,361.783508 1116.155884,361.783508 
	C1116.155884,354.100830 1116.161499,346.501221 1116.152710,338.901642 
	C1116.149902,336.570343 1116.193481,334.234467 1116.067383,331.908752 
	C1115.745728,325.977142 1113.439087,323.043274 1108.600586,322.242706 
	C1103.777588,321.444702 1098.132690,324.480377 1097.089966,329.669647 
	C1095.991455,335.135071 1096.286865,340.880615 1095.973145,347.001709 
z"/>
<path fill="#6137CC" opacity="1.000000" stroke="none" 
	d="
M1188.435669,327.689240 
	C1188.843506,332.343018 1189.122192,336.616577 1189.452515,341.682709 
	C1183.135864,341.682709 1177.544434,341.682709 1171.953003,341.682709 
	C1166.305176,341.682709 1160.657471,341.682709 1154.779053,341.682709 
	C1154.331543,346.414551 1156.512329,349.419037 1159.980469,351.316895 
	C1164.502686,353.791534 1169.313232,353.828949 1173.737305,350.964203 
	C1180.080200,346.856934 1180.018921,346.762268 1187.707520,350.955078 
	C1184.589844,359.076172 1175.755493,363.613800 1164.286377,362.985077 
	C1151.537720,362.286224 1142.470825,353.956146 1141.100586,341.683502 
	C1139.430664,326.726410 1145.937134,315.873322 1158.588745,312.512726 
	C1172.260986,308.881073 1183.912842,314.682587 1188.435669,327.689240 
M1174.156616,325.498108 
	C1170.594116,321.002075 1165.809326,320.867523 1161.061646,322.518372 
	C1157.062988,323.908844 1154.775879,327.125366 1154.761353,331.701660 
	C1161.966431,331.701660 1168.963989,331.701660 1176.548340,331.701660 
	C1175.787231,329.503082 1175.206421,327.825592 1174.156616,325.498108 
z"/>
<path fill="#6137CC" opacity="1.000000" stroke="none" 
	d="
M873.488159,332.620453 
	C876.525208,312.092224 896.831482,308.368652 909.393311,313.947296 
	C919.061890,318.241089 923.580322,329.117615 920.855164,341.493225 
	C909.781250,341.493225 898.566406,341.493225 887.138611,341.493225 
	C886.614258,346.154999 888.630859,349.046722 891.831604,351.021301 
	C896.260925,353.753845 901.940857,354.635529 905.373230,351.097412 
	C910.800110,345.503418 915.135193,348.371338 920.054749,350.740692 
	C918.892395,358.231812 907.994080,362.618713 900.864563,362.993958 
	C882.501099,363.960388 871.976746,352.502747 873.488159,332.620453 
M889.831055,332.084595 
	C896.050049,332.084595 902.269043,332.084595 908.574219,332.084595 
	C907.372803,325.021362 905.011169,322.390198 899.795593,321.806366 
	C893.950928,321.152039 889.521606,323.408447 887.658997,328.197754 
	C887.100891,329.632782 885.439880,331.796326 889.831055,332.084595 
z"/>
<path fill="#6137CC" opacity="1.000000" stroke="none" 
	d="
M930.481323,340.552368 
	C929.827393,325.284668 935.966248,315.680603 948.075562,312.496643 
	C967.406921,307.413818 982.145691,321.360596 978.043762,341.683929 
	C972.606750,341.683929 967.011597,341.683929 961.416382,341.683929 
	C955.777954,341.683929 950.139465,341.683929 944.197205,341.683929 
	C943.859314,346.068909 945.730835,349.008698 948.943665,350.997833 
	C953.379272,353.744049 959.112610,354.657074 962.489441,351.128021 
	C967.926819,345.445557 972.252930,348.365936 977.178589,350.748291 
	C976.410522,358.012390 964.315735,363.987640 953.040100,362.965302 
	C940.364319,361.816071 932.583801,354.295135 930.481323,340.552368 
M961.192200,332.085938 
	C962.647278,332.021912 964.102356,331.957916 965.577087,331.893066 
	C964.681641,324.536346 961.285950,321.442383 954.643982,321.692078 
	C948.365234,321.928101 944.687622,325.549683 944.401245,332.086060 
	C949.694580,332.086060 954.976746,332.086060 961.192200,332.085938 
z"/>
<path fill="#6036CB" opacity="1.000000" stroke="none" 
	d="
M1335.706665,317.384766 
	C1334.449219,323.920837 1330.827759,328.405273 1324.958862,329.829681 
	C1318.982544,331.280121 1315.210327,333.480682 1316.953979,340.654541 
	C1312.518677,340.654541 1308.653931,340.654541 1304.537109,340.654541 
	C1304.537109,335.871429 1304.537109,331.266571 1304.537109,326.528168 
	C1308.096924,325.642792 1311.685059,325.014038 1315.086304,323.842377 
	C1320.116455,322.109528 1322.058838,318.650513 1321.272949,313.847504 
	C1320.462769,308.896484 1316.774170,307.565308 1312.595825,307.125214 
	C1305.692871,306.398163 1301.921997,309.367218 1298.756958,318.089417 
	C1294.812500,316.593323 1290.867065,315.096771 1286.964966,313.616699 
	C1287.606934,305.788116 1293.486450,298.703156 1302.079590,297.217773 
	C1308.162231,296.166351 1314.719604,296.017731 1320.780640,297.083557 
	C1331.949951,299.047638 1336.462036,305.717560 1335.706665,317.384766 
z"/>
<path fill="#5E33CB" opacity="1.000000" stroke="none" 
	d="
M1220.708984,352.984283 
	C1222.202515,352.834717 1223.294556,352.693298 1224.788574,352.499817 
	C1223.923828,356.887970 1225.434448,361.764221 1218.659912,362.736633 
	C1211.284058,363.795319 1204.504395,361.765900 1202.295288,356.491638 
	C1201.481934,354.549866 1201.003906,352.316772 1200.993164,350.213440 
	C1200.896973,331.260803 1200.936157,312.307465 1200.950562,293.354340 
	C1200.951050,292.727936 1201.110962,292.101685 1201.227295,291.250671 
	C1205.479980,291.250671 1209.548462,291.250671 1214.184570,291.250671 
	C1214.184570,297.000244 1214.184448,302.596863 1214.184692,308.193451 
	C1214.185303,320.828888 1214.220215,333.464508 1214.167480,346.099701 
	C1214.149780,350.332916 1215.214355,353.405853 1220.708984,352.984283 
z"/>
<path fill="#6238CC" opacity="1.000000" stroke="none" 
	d="
M1302.470703,357.323853 
	C1302.247803,349.750946 1307.510132,345.597656 1313.970703,348.398956 
	C1316.109497,349.326263 1318.398071,352.301971 1318.633545,354.549255 
	C1318.868408,356.788483 1317.110962,360.746613 1315.340210,361.350250 
	C1312.295288,362.388336 1308.518921,361.666809 1305.142944,361.114044 
	C1304.130981,360.948334 1303.429199,358.887970 1302.470703,357.323853 
z"/>
<path fill="#FCFCFE" opacity="1.000000" stroke="none" 
	d="
M392.914032,501.751282 
	C390.409119,513.592041 383.188812,520.689880 372.182709,523.571655 
	C354.484222,528.205688 336.590729,528.179504 318.825378,523.859192 
	C306.479126,520.856689 299.318085,512.913757 296.682953,500.283264 
	C293.835388,486.634399 294.626740,473.260437 299.896301,460.638031 
	C304.347595,449.975769 310.512177,440.020416 316.078613,429.839783 
	C317.077026,428.013733 318.854370,426.613525 320.232056,425.061798 
	C337.949127,436.388733 353.132477,436.444458 369.032562,425.438660 
	C380.845215,433.463348 401.588593,474.416290 392.914032,501.751282 
M371.610596,471.766693 
	C369.497528,472.257019 366.892548,472.129028 365.359589,473.348572 
	C359.788818,477.780334 354.524597,482.605743 349.254120,487.402832 
	C346.989716,489.463806 345.121002,489.432404 342.763672,487.491821 
	C336.750580,482.541779 330.742126,477.553223 324.377258,473.085236 
	C322.678375,471.892639 318.968445,471.476685 317.472412,472.532654 
	C314.653961,474.522064 316.279419,477.296112 318.567261,479.132263 
	C326.579529,485.562622 334.496490,492.135620 342.840424,498.108582 
	C344.499847,499.296478 348.656036,499.077393 350.342438,497.785706 
	C357.570435,492.249481 364.365204,486.137085 371.188660,480.088867 
	C373.643188,477.913269 374.685913,475.201263 371.610596,471.766693 
z"/>
<path fill="#FCFBFE" opacity="1.000000" stroke="none" 
	d="
M1001.081665,336.204926 
	C1002.352783,325.788116 1006.386108,321.462463 1013.915955,322.013458 
	C1020.746643,322.513245 1024.629639,328.548767 1024.262207,338.095428 
	C1023.912292,347.186310 1019.443726,352.840607 1012.660217,352.776184 
	C1007.864014,352.730652 1003.621155,349.762024 1002.255005,344.970245 
	C1001.493103,342.297821 1001.446045,339.421570 1001.081665,336.204926 
z"/>
<path fill="#FCFBFE" opacity="1.000000" stroke="none" 
	d="
M1250.197266,349.855652 
	C1244.891357,343.177429 1244.825439,336.072662 1247.573853,328.882324 
	C1249.407349,324.084991 1253.245728,321.659912 1258.551880,322.010345 
	C1263.685547,322.349396 1267.112305,325.174988 1268.034180,330.036926 
	C1268.823486,334.199280 1269.257446,338.692810 1268.556274,342.820282 
	C1266.981201,352.090027 1258.645386,355.226257 1250.197266,349.855652 
z"/>
<path fill="#FCFBFE" opacity="1.000000" stroke="none" 
	d="
M1174.391113,325.823120 
	C1175.206421,327.825592 1175.787231,329.503082 1176.548340,331.701660 
	C1168.963989,331.701660 1161.966431,331.701660 1154.761353,331.701660 
	C1154.775879,327.125366 1157.062988,323.908844 1161.061646,322.518372 
	C1165.809326,320.867523 1170.594116,321.002075 1174.391113,325.823120 
z"/>
<path fill="#FAF9FD" opacity="1.000000" stroke="none" 
	d="
M889.375244,332.080505 
	C885.439880,331.796326 887.100891,329.632782 887.658997,328.197754 
	C889.521606,323.408447 893.950928,321.152039 899.795593,321.806366 
	C905.011169,322.390198 907.372803,325.021362 908.574219,332.084595 
	C902.269043,332.084595 896.050049,332.084595 889.375244,332.080505 
z"/>
<path fill="#FAF9FD" opacity="1.000000" stroke="none" 
	d="
M960.725586,332.085999 
	C954.976746,332.086060 949.694580,332.086060 944.401245,332.086060 
	C944.687622,325.549683 948.365234,321.928101 954.643982,321.692078 
	C961.285950,321.442383 964.681641,324.536346 965.577087,331.893066 
	C964.102356,331.957916 962.647278,332.021912 960.725586,332.085999 
z"/>
<path fill="#3E4ECF" opacity="1.000000" stroke="none" 
	d="
M371.891693,471.997070 
	C374.685913,475.201263 373.643188,477.913269 371.188660,480.088867 
	C364.365204,486.137085 357.570435,492.249481 350.342438,497.785706 
	C348.656036,499.077393 344.499847,499.296478 342.840424,498.108582 
	C334.496490,492.135620 326.579529,485.562622 318.567261,479.132263 
	C316.279419,477.296112 314.653961,474.522064 317.472412,472.532654 
	C318.968445,471.476685 322.678375,471.892639 324.377258,473.085236 
	C330.742126,477.553223 336.750580,482.541779 342.763672,487.491821 
	C345.121002,489.432404 346.989716,489.463806 349.254120,487.402832 
	C354.524597,482.605743 359.788818,477.780334 365.359589,473.348572 
	C366.892548,472.129028 369.497528,472.257019 371.891693,471.997070 
z"/>
</svg>